<svg width="20" height="21" viewBox="0 0 20 21" fill="none" xmlns="http://www.w3.org/2000/svg">
<path d="M15 2.82178H19C19.2652 2.82178 19.5196 2.92713 19.7071 3.11467C19.8946 3.30221 20 3.55656 20 3.82178V19.8218C20 20.087 19.8946 20.3413 19.7071 20.5289C19.5196 20.7164 19.2652 20.8218 19 20.8218H1C0.734784 20.8218 0.48043 20.7164 0.292893 20.5289C0.105357 20.3413 0 20.087 0 19.8218V3.82178C0 3.55656 0.105357 3.30221 0.292893 3.11467C0.48043 2.92713 0.734784 2.82178 1 2.82178H5V0.821777H7V2.82178H13V0.821777H15V2.82178ZM18 10.8218H2V18.8218H18V10.8218ZM13 4.82178H7V6.82178H5V4.82178H2V8.82178H18V4.82178H15V6.82178H13V4.82178ZM4 12.8218H6V14.8218H4V12.8218ZM9 12.8218H11V14.8218H9V12.8218ZM14 12.8218H16V14.8218H14V12.8218Z" fill="#747474"/>
</svg>
