<?xml version="1.0" encoding="utf-8"?>
<!-- Generator: Adobe Illustrator 21.0.0, SVG Export Plug-In . SVG Version: 6.00 Build 0)  -->
<svg version="1.1" id="圖層_1" xmlns="http://www.w3.org/2000/svg" xmlns:xlink="http://www.w3.org/1999/xlink" x="0px" y="0px"
	 viewBox="0 0 21 15" style="enable-background:new 0 0 21 15;" xml:space="preserve">
<style type="text/css">
	.st0{fill:#FFFFFF;}
	.st1{fill:#B02B2B;}
</style>
<rect x="7.1" y="3.4" class="st0" width="8.4" height="8.4"/>
<path class="st1" d="M21,5.2c0-0.3,0-0.5,0-0.8c-0.1-1.1-0.2-2.3-0.9-3.1c-0.6-0.7-1.5-0.9-2.4-1c-1.1-0.1-2.2-0.2-3.3-0.2
	c-2.3-0.1-4.5,0-6.8,0c-1.2,0-2.3,0.1-3.5,0.1C2.7,0.3,1.2,0.5,0.5,2C-0.1,3.2,0,4.9,0,6.3C0,7.5,0,8.7,0,10
	c0.1,1.6,0.2,3.7,1.9,4.4c0.9,0.4,2,0.5,3,0.5C6,15,7,15,8.1,15c2.2,0,4.4,0,6.6-0.1c1.5,0,3.1-0.1,4.5-0.6c1.3-0.4,1.6-1.8,1.8-3
	c0-1.1,0-2.3,0-3.5C21,6.9,21,6,21,5.2z M14,7.8L8.5,11V4.5L14,7.8z"/>
</svg>
