<svg width="48" height="48" viewBox="0 0 48 48" fill="none" xmlns="http://www.w3.org/2000/svg">
<circle cx="24" cy="24" r="24" fill="#DC2032"/>
<g clip-path="url(#clip0_1753_692)">
<path d="M23.9997 22.582C25.8783 22.582 27.68 23.3283 29.0083 24.6567C30.3367 25.9851 31.083 27.7867 31.083 29.6654V38.1654H16.9163V29.6654C16.9163 27.7867 17.6626 25.9851 18.991 24.6567C20.3194 23.3283 22.1211 22.582 23.9997 22.582ZM14.491 26.8405C14.2656 27.601 14.1324 28.3858 14.0943 29.178L14.083 29.6654V38.1654H9.83301V31.7904C9.83273 30.5686 10.2835 29.3897 11.099 28.4799C11.9144 27.5701 13.0371 26.9934 14.2516 26.8604L14.4924 26.8405H14.491ZM33.5083 26.8405C34.769 26.9174 35.9529 27.4723 36.8185 28.3921C37.6841 29.3119 38.1662 30.5273 38.1663 31.7904V38.1654H33.9163V29.6654C33.9163 28.6836 33.7747 27.7359 33.5083 26.8405ZM14.7913 18.332C15.7306 18.332 16.6315 18.7052 17.2957 19.3694C17.9599 20.0336 18.333 20.9344 18.333 21.8737C18.333 22.813 17.9599 23.7138 17.2957 24.378C16.6315 25.0422 15.7306 25.4154 14.7913 25.4154C13.852 25.4154 12.9512 25.0422 12.287 24.378C11.6228 23.7138 11.2497 22.813 11.2497 21.8737C11.2497 20.9344 11.6228 20.0336 12.287 19.3694C12.9512 18.7052 13.852 18.332 14.7913 18.332ZM33.208 18.332C34.1473 18.332 35.0482 18.7052 35.7123 19.3694C36.3765 20.0336 36.7497 20.9344 36.7497 21.8737C36.7497 22.813 36.3765 23.7138 35.7123 24.378C35.0482 25.0422 34.1473 25.4154 33.208 25.4154C32.2687 25.4154 31.3679 25.0422 30.7037 24.378C30.0395 23.7138 29.6663 22.813 29.6663 21.8737C29.6663 20.9344 30.0395 20.0336 30.7037 19.3694C31.3679 18.7052 32.2687 18.332 33.208 18.332ZM23.9997 9.83203C25.5026 9.83203 26.9439 10.4291 28.0066 11.4918C29.0693 12.5545 29.6663 13.9958 29.6663 15.4987C29.6663 17.0016 29.0693 18.4429 28.0066 19.5056C26.9439 20.5683 25.5026 21.1654 23.9997 21.1654C22.4968 21.1654 21.0554 20.5683 19.9927 19.5056C18.93 18.4429 18.333 17.0016 18.333 15.4987C18.333 13.9958 18.93 12.5545 19.9927 11.4918C21.0554 10.4291 22.4968 9.83203 23.9997 9.83203Z" fill="white"/>
</g>
<defs>
<clipPath id="clip0_1753_692">
<rect width="34" height="34" fill="white" transform="translate(7 7)"/>
</clipPath>
</defs>
</svg>
