<?xml version="1.0" encoding="utf-8"?>
<!-- Generator: Adobe Illustrator 24.3.0, SVG Export Plug-In . SVG Version: 6.00 Build 0)  -->
<svg version="1.1" id="圖層_1" xmlns="http://www.w3.org/2000/svg" xmlns:xlink="http://www.w3.org/1999/xlink" x="0px" y="0px"
	 viewBox="0 0 120 120" style="enable-background:new 0 0 120 120;" xml:space="preserve">
<style type="text/css">
	.st0{fill-rule:evenodd;clip-rule:evenodd;fill:#FFFFFF;}
</style>
<g>
	<path class="st0" d="M60.2,2.5l14.2,43.8l45.8-0.2L83,73l14.4,43.6L60.2,89.5l-37,27.1L37.4,73L0.2,46.1l46,0.2L60.2,2.5z M65,49.2
		l-4.8-14.4l-4.6,14.4l0,0c-1.3,4-5,6.8-9.4,6.8H30.9l12.3,9l0,0c3.3,2.4,5,6.8,3.7,11l-4.8,14.5l12.1-8.8c3.3-2.6,8.1-2.8,11.8-0.2
		l12.3,9l-4.6-14.2c-1.7-4-0.2-8.8,3.5-11.4l12.1-9H74.7C70.5,56.2,66.3,53.7,65,49.2z"/>
</g>
</svg>
