<svg width="48" height="48" viewBox="0 0 48 48" fill="none" xmlns="http://www.w3.org/2000/svg">
<circle cx="24" cy="24" r="24" fill="#85D233"/>
<path d="M25.95 33.1053V36.0526H31.75V39H17.25V36.0526H23.05V33.1053H11.45C11.0654 33.1053 10.6966 32.95 10.4247 32.6736C10.1528 32.3973 10 32.0224 10 31.6316V12.4737C10 12.0828 10.1528 11.708 10.4247 11.4316C10.6966 11.1553 11.0654 11 11.45 11H37.55C37.9346 11 38.3034 11.1553 38.5753 11.4316C38.8472 11.708 39 12.0828 39 12.4737V31.6316C39 32.0224 38.8472 32.3973 38.5753 32.6736C38.3034 32.95 37.9346 33.1053 37.55 33.1053H25.95ZM21.6 17.6316V26.4737L28.85 22.0526L21.6 17.6316Z" fill="white"/>
</svg>
