<?xml version="1.0" encoding="utf-8"?>
<!-- Generator: Adobe Illustrator 25.2.1, SVG Export Plug-In . SVG Version: 6.00 Build 0)  -->
<svg version="1.1" id="圖層_1" xmlns="http://www.w3.org/2000/svg" xmlns:xlink="http://www.w3.org/1999/xlink" x="0px" y="0px"
	 viewBox="0 0 32 32" style="enable-background:new 0 0 32 32;" xml:space="preserve">
<style type="text/css">
	.st0{fill:#FFFFFF;}
</style>
<path class="st0" d="M16,0C7.1,0,0,7.1,0,16s7.1,16,16,16s16-7.1,16-16S24.9,0,16,0z M23.5,17.1h-6.3v6.3c0,0.6-0.5,1.1-1.1,1.1
	s-1.1-0.5-1.1-1.1v-6.3H8.5c-0.6,0-1.1-0.5-1.1-1.1s0.5-1.1,1.1-1.1h6.3V8.5c0-0.6,0.5-1.1,1.1-1.1s1.1,0.5,1.1,1.1v6.3h6.3
	c0.6,0,1.1,0.5,1.1,1.1S24.1,17.1,23.5,17.1z"/>
</svg>
