<svg width="48" height="48" viewBox="0 0 48 48" fill="none" xmlns="http://www.w3.org/2000/svg">
<circle cx="24" cy="24" r="24" fill="#1DBDF1"/>
<g clip-path="url(#clip0_1753_698)">
<path d="M35.3333 9.83203C36.1153 9.83203 36.75 10.4667 36.75 11.2487V16.5711L24.0014 29.3211L23.9929 35.325L30.0081 35.3334L36.75 28.5915V36.7487C36.75 37.5307 36.1153 38.1654 35.3333 38.1654H12.6667C11.8847 38.1654 11.25 37.5307 11.25 36.7487V11.2487C11.25 10.4667 11.8847 9.83203 12.6667 9.83203H35.3333ZM37.8522 19.4767L39.8553 21.4799L28.8365 32.4987L26.8305 32.4959L26.8333 30.4955L37.8522 19.4767ZM24 23.9987H16.9167V26.832H24V23.9987ZM28.25 18.332H16.9167V21.1654H28.25V18.332Z" fill="white"/>
</g>
<defs>
<clipPath id="clip0_1753_698">
<rect width="34" height="34" fill="white" transform="translate(7 7)"/>
</clipPath>
</defs>
</svg>
