<?xml version="1.0" encoding="utf-8"?>
<!-- Generator: Adobe Illustrator 25.2.1, SVG Export Plug-In . SVG Version: 6.00 Build 0)  -->
<svg version="1.1" id="圖層_1" xmlns="http://www.w3.org/2000/svg" xmlns:xlink="http://www.w3.org/1999/xlink" x="0px" y="0px"
	 viewBox="0 0 32 32" style="enable-background:new 0 0 32 32;" xml:space="preserve">
<style type="text/css">
	.st0{fill:#FFFFFF;}
</style>
<g>
	<polygon class="st0" points="18.1,8.5 16.3,10.3 20.9,14.8 6.6,14.8 6.6,17.4 20.9,17.4 16.3,21.9 18.1,23.7 25.7,16.1 	"/>
	<path class="st0" d="M15.9,0.2C7.2,0.2,0,7.3,0,16.1S7.2,32,15.9,32s15.9-7.1,15.9-15.9S24.7,0.2,15.9,0.2z M15.9,29.5
		c-7.4,0-13.4-6-13.4-13.4s6-13.4,13.4-13.4s13.4,6,13.4,13.4S23.3,29.5,15.9,29.5z"/>
</g>
</svg>
