<?xml version="1.0" encoding="utf-8"?>
<!-- Generator: Adobe Illustrator 24.3.0, SVG Export Plug-In . SVG Version: 6.00 Build 0)  -->
<svg version="1.1" id="圖層_1" xmlns="http://www.w3.org/2000/svg" xmlns:xlink="http://www.w3.org/1999/xlink" x="0px" y="0px"
	 viewBox="0 0 48 48" style="enable-background:new 0 0 48 48;" xml:space="preserve">
<style type="text/css">
	.st0{fill:#FFFFFF;}
</style>
<g transform="translate(0,-952.36218)">
	<path class="st0" d="M37.3,976.4c0-0.3-0.1-0.6-0.3-0.8l-6.2-6.6c-0.4-0.4-1.2-0.5-1.7-0.1c-0.5,0.4-0.5,1.3,0,1.7l4.4,4.7H11.9
		c-0.6,0-1.2,0.5-1.2,1.2c0,0.6,0.5,1.2,1.2,1.2h21.5l-4.4,4.7c-0.4,0.4-0.5,1.3,0,1.7c0.5,0.4,1.3,0.3,1.7-0.1l6.2-6.6
		C37.2,976.9,37.3,976.7,37.3,976.4L37.3,976.4z"/>
</g>
</svg>
